# xmcd
#
# Track frame offsets:
#	150
#	15152
#	37594
#	52122
#	70848
#	79695
#	97519
#	109069
#	122787
#	139564
#	150038
#	165978
#	176624
#	192524
#	203819
#	221409
#	232509
#	244998
#	259911
#	273101
#	287651
#
# Disc length: 4006 seconds
#
# Revision: 1
# Processed by: cddbd v1.5.2PL0 Copyright (c) Steve Scherf et al.
# Submitted via: audiograbber 1.83.01
#
DISCID=020fa415
DTITLE=Various Artist - 101 Pub Songs 05_05
DYEAR=2012
DGENRE=Celtic
TTITLE0=The Dublin City Ramblers - The Irish Rover
TTITLE1=Barleycorn - The Flight Of Earls
TTITLE2=Brush Shields - Molly Malone
TTITLE3=The Black Family - Since Maggie Went Away
TTITLE4=The Jollybeggarmen - The Molly Maguires
TTITLE5=Chris Ball - My Lovely Rose Of Clare
TTITLE6=Liam Clancy - The Holy Ground
TTITLE7=Sean Dunphy - The Banks Of My Own Lovely Lee
TTITLE8=Ronnie Drew - The Humour Is On Me Now
TTITLE9=The Wolf Tones - Down By The Liffeyside
TTITLE10=Johnny McEvoy - Sam Hall
TTITLE11=Patsy Watchorn - The Rare Ould Mountain Dew
TTITLE12=Na Fianna - Caledonia
TTITLE13=The Jollybeggarmen - The Monto_Biddy Mulligan
TTITLE14=Derek McCormick - Moonlight In Mayo
TTITLE15=Barleycorn - The Man Behind Wire
TTITLE16=The Castleglen Singers - The Dublin Saunter_The Rare Old Times_Summer 
TTITLE16=In Dublin
TTITLE17=The Dublin City Ramblers - Finnegans Wake
TTITLE18=Dermot O'Brian - Quare Bungle Rye
TTITLE19=Sharon Shannon, Johnny McEvoy and Gerry O'Connor - Salonika
TTITLE20=Liam Clancy - The Parting Glass
EXTD=
EXTT0=
EXTT1=
EXTT2=
EXTT3=
EXTT4=
EXTT5=
EXTT6=
EXTT7=
EXTT8=
EXTT9=
EXTT10=
EXTT11=
EXTT12=
EXTT13=
EXTT14=
EXTT15=
EXTT16=
EXTT17=
EXTT18=
EXTT19=
EXTT20=
PLAYORDER=
